<svg version="1.1" id="Calque_1" xmlns="http://www.w3.org/2000/svg" x="0" y="0" viewBox="0 0 547 148.8" style="enable-background:new 0 0 547 148.8" xml:space="preserve"><style>.st0{fill:none}.st1{fill:#262626}</style><path class="st0" d="M133 126.2c-.9-1-1.9-1.8-3.1-2.3s-2.5-.9-3.8-.9c-1.3 0-2.6.3-3.8.9-1.2.6-2.2 1.4-3.1 2.4-.9 1-1.6 2.2-2.1 3.5-.5 1.3-.8 2.8-.8 4.3s.3 2.9.8 4.2c.5 1.3 1.2 2.4 2.1 3.4.9 1 1.9 1.8 3.1 2.3 1.2.6 2.5.8 3.8.8 1.3 0 2.6-.3 3.8-.9 1.2-.6 2.2-1.3 3.1-2.3.9-1 1.6-2.1 2.1-3.4.5-1.3.8-2.7.8-4.2s-.3-2.9-.8-4.2c-.5-1.5-1.2-2.6-2.1-3.6zM366.3 125.4c-.9-.9-1.9-1.5-3.1-2-1.2-.5-2.4-.7-3.7-.7-1.3 0-2.6.2-3.7.7-1.2.5-2.2 1.2-3.1 2-.9.9-1.6 1.9-2.1 3.1-.5 1.2-.9 2.5-1 3.9h19.8c-.1-1.4-.4-2.8-1-4-.5-1.1-1.3-2.2-2.1-3zM124.3 50.7c-2.2-2.1-5.1-3.2-8.5-3.2s-6.3 1.1-8.5 3.2-3.6 5-4 8.7h25.1c-.5-3.7-1.8-6.6-4.1-8.7zM282.2 125.4c-.9-.9-1.9-1.5-3.1-2-1.2-.5-2.4-.7-3.7-.7-1.3 0-2.6.2-3.7.7-1.2.5-2.2 1.2-3.1 2-.9.9-1.6 1.9-2.1 3.1-.5 1.2-.9 2.5-1 3.9h19.8c-.1-1.4-.4-2.8-1-4-.5-1.1-1.2-2.2-2.1-3zM167.5 125c-.8-.6-1.8-1.1-2.7-1.4-1-.3-1.9-.5-2.8-.5-1.4 0-2.8.3-3.9.9-1.2.6-2.2 1.4-3 2.5-.8 1-1.5 2.2-1.9 3.5-.4 1.3-.7 2.7-.7 4 0 1.4.3 2.8.8 4.1.5 1.3 1.2 2.5 2.1 3.4.9 1 2 1.8 3.2 2.4 1.2.6 2.5.9 4 .9.9 0 1.8-.2 2.8-.5 1-.3 1.9-.8 2.8-1.4.9-.6 1.6-1.3 2.2-2.1.6-.8 1-1.7 1.1-2.6v-8.3c-.3-.9-.8-1.8-1.5-2.6-.9-1-1.6-1.7-2.5-2.3zM206.3 125.4c-.9-.9-1.9-1.5-3.1-2-1.2-.5-2.4-.7-3.7-.7-1.3 0-2.6.2-3.7.7-1.2.5-2.2 1.2-3.1 2-.9.9-1.6 1.9-2.1 3.1-.5 1.2-.9 2.5-1 3.9h19.8c-.1-1.4-.4-2.8-1-4-.5-1.1-1.2-2.2-2.1-3zM383.2 51.1c-3.9 0-7.2 1.4-9.7 4.3-2.5 2.9-3.8 6.9-3.8 12s1.2 9.1 3.8 12c2.5 2.9 5.7 4.3 9.7 4.3 3.9 0 7.2-1.4 9.7-4.3 2.5-2.9 3.8-6.9 3.8-12s-1.3-9.1-3.8-12c-2.5-2.9-5.8-4.3-9.7-4.3z"/><path class="st1" d="M130.8 79.5c-.9 2.4-2.6 4.3-5.3 5.6-2.6 1.3-5.5 2-8.4 2-3.2 0-6.1-.9-8.8-2.7-2.7-1.8-4.2-4.7-4.5-8.7h53.3c.2-1.2.4-2.5.5-4 .1-1.5.2-3 .2-4.4 0-5.2-.9-10.2-2.7-14.9-1.8-4.8-4.4-9-7.9-12.6-3.5-3.6-7.9-6.5-13.1-8.7-5.1-2-11.1-3.1-17.8-3.1-6.8 0-12.8 1.1-18 3.2-4.3 1.8-7.9 4.1-11.1 7 1.7 2.9 2.6 6.3 2.6 10 0 9.4-6.4 17.3-15.1 19.6v.7c0 2.2.2 4.3.5 6.4 8.4 2.5 14.6 10.2 14.6 19.4 0 1.5-.2 3-.5 4.4 2.7 2 5.7 3.7 9.2 5.1 5.2 2.1 11.1 3.1 17.8 3.1 9.3 0 17.2-1.9 23.6-5.8 6.4-3.8 11.1-8.8 14.2-14.9l-23.3-6.7zm-23.5-28.8c2.2-2.1 5.1-3.2 8.5-3.2s6.3 1.1 8.5 3.2 3.6 5 4 8.7h-25.1c.6-3.7 1.9-6.6 4.1-8.7zM263.4 105.4V62.8c1.2-3.2 3-5.8 5.4-7.8 2.5-2 4.8-3 7-3 2.1 0 3.9.8 5.4 2.5 1.5 1.7 2.2 4.4 2.2 8.2v42.7h27.4v-50c0-2.6-.2-5.5-.7-8.7-.5-3.2-1.5-6.2-3-9s-3.8-5.1-6.7-7c-2.9-1.9-6.9-2.8-11.9-2.8-6 0-11.3 1.2-16 3.5-4.7 2.3-8.4 5.5-11 9.7-.6-1.7-1.4-3.4-2.4-4.9-1-1.5-2.4-2.9-4-4.2-1.7-1.2-3.7-2.2-6-3-2.3-.7-5-1.1-8.1-1.1-6.4 0-12 1.1-16.7 3.2-4.7 2.2-8.4 5.3-11.1 9.5V29.4h-24.7v75.9h27.4V62.8c1.2-3.2 3-5.8 5.4-7.8 2.5-2 4.8-3 7-3 2.1 0 3.9.8 5.4 2.5 1.5 1.7 2.2 4.4 2.2 8.2v42.7h27.5zM414.1 39.9c-3.5-3.6-7.9-6.5-13.1-8.7-5.2-2.2-11.2-3.2-17.9-3.2-6.8 0-12.8 1.1-18 3.2-5.1 2.2-9.5 5.1-13 8.7-3.5 3.6-6.2 7.8-7.9 12.6-1.8 4.8-2.7 9.7-2.7 14.9 0 5.2.9 10.2 2.7 14.9 1.8 4.8 4.4 9 7.9 12.6 3.5 3.6 7.8 6.5 13 8.7 5.1 2.2 11.1 3.2 18 3.2 6.7 0 12.7-1.1 17.9-3.2 5.2-2.2 9.5-5.1 13.1-8.7 3.5-3.6 6.2-7.8 7.9-12.6 1.8-4.8 2.7-9.7 2.7-14.9 0-5.2-.9-10.2-2.7-14.9-1.7-4.8-4.3-9-7.9-12.6zm-21.2 39.5c-2.5 2.9-5.7 4.3-9.7 4.3-3.9 0-7.2-1.4-9.7-4.3-2.5-2.9-3.8-6.9-3.8-12s1.2-9.1 3.8-12c2.5-2.9 5.7-4.3 9.7-4.3 3.9 0 7.2 1.4 9.7 4.3 2.5 2.9 3.8 6.9 3.8 12-.1 5.1-1.3 9.1-3.8 12zM456.7 0h27.4v23.1h-27.4zM456.7 29.4v89.5c0 4.1-1.9 6.2-5.8 6.2-2.8 0-5.1-1-6.8-2.9L432.8 141c3 2.5 6.3 4.4 10 5.8 3.7 1.3 7.5 2 11.5 2 4.3 0 8.3-.8 12-2.3 3.7-1.5 6.8-3.7 9.5-6.6 2.6-2.8 4.7-6.2 6.1-10.1 1.4-3.9 2.2-8.2 2.2-12.9V29.4h-27.4zM519.6 29.4H547v75.9h-27.4zM519.6 0H547v23.1h-27.4zM99.6 141.9c-.5.6-1.1 1-1.9 1.5-.7.4-1.5.8-2.4 1-.8.2-1.7.4-2.6.4-1.3 0-2.6-.3-3.8-.9-1.2-.6-2.2-1.3-3.1-2.3-.9-1-1.6-2.1-2.1-3.5-.5-1.3-.8-2.8-.8-4.3 0-1.6.2-3 .7-4.3.5-1.3 1.2-2.4 2.1-3.4.9-.9 1.9-1.7 3.1-2.3 1.2-.6 2.5-.8 3.9-.8 1.7 0 3.2.4 4.5 1.2 1.4.8 2.4 1.9 3.2 3.2l3.4-1.1c-1-2-2.4-3.5-4.3-4.7-1.9-1.2-4.1-1.7-6.7-1.7-2 0-3.8.4-5.5 1.1-1.7.7-3.1 1.7-4.3 3-1.2 1.3-2.1 2.7-2.8 4.4-.7 1.7-1 3.5-1 5.4 0 1.9.3 3.7 1 5.4.7 1.7 1.6 3.2 2.8 4.5 1.2 1.3 2.6 2.3 4.3 3.1 1.7.7 3.5 1.1 5.4 1.1 1.3 0 2.5-.2 3.7-.5 1.2-.3 2.3-.8 3.3-1.4 1-.6 1.8-1.3 2.6-2.1.7-.8 1.3-1.7 1.7-2.7l-3.5-1c0 .6-.4 1.1-.9 1.7zM135.7 124.1c-1.2-1.3-2.6-2.3-4.2-3.1-1.6-.8-3.4-1.1-5.4-1.1-1.9 0-3.7.4-5.3 1.1-1.6.8-3 1.8-4.2 3.1-1.2 1.3-2.1 2.8-2.8 4.4-.7 1.7-1 3.5-1 5.4 0 1.9.3 3.6 1 5.3.7 1.7 1.6 3.2 2.8 4.4 1.2 1.3 2.6 2.3 4.2 3 1.6.7 3.4 1.1 5.4 1.1 2 0 3.8-.4 5.4-1.1 1.6-.7 3.1-1.8 4.2-3 1.2-1.3 2.1-2.8 2.8-4.4.7-1.7 1-3.5 1-5.3 0-1.9-.3-3.7-1-5.4-.8-1.6-1.7-3.1-2.9-4.4zm-.6 14c-.5 1.3-1.2 2.5-2.1 3.4-.9 1-1.9 1.8-3.1 2.3-1.2.6-2.5.9-3.8.9-1.3 0-2.6-.3-3.8-.8-1.2-.6-2.2-1.3-3.1-2.3-.9-1-1.6-2.1-2.1-3.4-.5-1.3-.8-2.7-.8-4.2s.3-2.9.8-4.3c.5-1.3 1.2-2.5 2.1-3.5.9-1 1.9-1.8 3.1-2.4 1.2-.6 2.4-.9 3.8-.9 1.3 0 2.6.3 3.8.9s2.2 1.3 3.1 2.3c.9 1 1.6 2.1 2.1 3.5.5 1.3.8 2.7.8 4.2 0 1.6-.2 3-.8 4.3zM174.8 142.8v-33.2h-3.5V126c-1-1.7-2.4-3.1-4.1-4.3-1.8-1.2-3.8-1.8-6.1-1.8-1.8 0-3.4.4-4.9 1.1-1.5.7-2.8 1.8-3.9 3-1.1 1.3-1.9 2.8-2.6 4.5-.6 1.7-.9 3.5-.9 5.4 0 1.8.3 3.6 1 5.3.6 1.7 1.5 3.1 2.7 4.4 1.1 1.3 2.5 2.3 4.1 3.1 1.6.8 3.3 1.2 5.2 1.2 2 0 3.9-.5 5.7-1.6 1.8-1 3.3-2.4 4.3-4.2v2.6c0 .8.3 1.4.9 1.9.6.5 1.3.8 2.2.8.3 0 .7-.1 1.2-.2v-3.1c-.9.1-1.3-.4-1.3-1.3zm-3.5-4.7c-.1.9-.5 1.8-1.1 2.6-.6.8-1.3 1.5-2.2 2.1-.9.6-1.8 1.1-2.8 1.4-1 .3-1.9.5-2.8.5-1.4 0-2.7-.3-4-.9-1.2-.6-2.3-1.4-3.2-2.4-.9-1-1.6-2.1-2.1-3.4-.5-1.3-.8-2.7-.8-4.1 0-1.4.2-2.7.7-4 .4-1.3 1.1-2.5 1.9-3.5.8-1 1.9-1.8 3-2.5 1.2-.6 2.5-.9 3.9-.9.9 0 1.9.2 2.8.5 1 .3 1.9.8 2.7 1.4.8.6 1.6 1.3 2.3 2.1.7.8 1.2 1.7 1.5 2.6v8.5zM209.1 124c-1.2-1.3-2.6-2.3-4.2-3-1.6-.7-3.4-1.1-5.4-1.1-1.9 0-3.7.4-5.4 1.1-1.7.7-3.1 1.7-4.3 3-1.2 1.3-2.1 2.7-2.8 4.4-.7 1.7-1 3.5-1 5.4 0 1.9.3 3.7 1 5.4.7 1.7 1.6 3.2 2.8 4.5 1.2 1.3 2.6 2.3 4.3 3.1 1.6.7 3.4 1.1 5.4 1.1 1.3 0 2.6-.2 3.8-.5 1.2-.3 2.3-.8 3.3-1.4 1-.6 1.9-1.3 2.6-2.1.8-.8 1.3-1.7 1.8-2.7l-3.1-.8c-.3.7-.8 1.4-1.3 2-.6.6-1.2 1.1-2 1.5-.7.4-1.5.7-2.4 1-.9.2-1.7.4-2.6.4-1.3 0-2.5-.2-3.7-.7-1.2-.5-2.2-1.2-3.1-2.1-.9-.9-1.6-2-2.2-3.2-.6-1.2-.9-2.6-1-4h23.1c0-.1.1-.3.1-.6v-.8c0-1.9-.3-3.6-1-5.3-.6-1.8-1.5-3.3-2.7-4.6zm-19.4 8.4c.1-1.4.4-2.7 1-3.9.5-1.2 1.2-2.2 2.1-3.1.9-.9 1.9-1.5 3.1-2 1.2-.5 2.4-.7 3.7-.7 1.3 0 2.5.2 3.7.7 1.2.5 2.2 1.2 3.1 2 .9.9 1.6 1.9 2.2 3.1.6 1.2.9 2.5 1 4h-19.9zM249.2 122c-1.7 1.2-3 2.8-4 4.9v-6.5h-3.3v27h3.5v-16.8c.7-2.2 2-3.9 3.7-5.1 1.8-1.2 3.8-1.9 6.2-2v-3.2c-.2 0-.4-.1-.7-.1-1.9 0-3.7.6-5.4 1.8zM285 124c-1.2-1.3-2.6-2.3-4.2-3-1.6-.7-3.4-1.1-5.4-1.1-1.9 0-3.7.4-5.4 1.1-1.7.7-3.1 1.7-4.3 3-1.2 1.3-2.1 2.7-2.8 4.4-.7 1.7-1 3.5-1 5.4 0 1.9.3 3.7 1 5.4.7 1.7 1.6 3.2 2.8 4.5 1.2 1.3 2.6 2.3 4.3 3.1 1.6.7 3.4 1.1 5.4 1.1 1.3 0 2.6-.2 3.8-.5 1.2-.3 2.3-.8 3.3-1.4 1-.6 1.9-1.3 2.6-2.1.8-.8 1.3-1.7 1.8-2.7l-3.1-.8c-.3.7-.8 1.4-1.3 2-.6.6-1.2 1.1-2 1.5-.7.4-1.5.7-2.4 1-.9.2-1.7.4-2.6.4-1.3 0-2.5-.2-3.7-.7-1.2-.5-2.2-1.2-3.1-2.1-.9-.9-1.6-2-2.2-3.2-.6-1.2-.9-2.6-1-4h23.1c0-.1.1-.3.1-.6v-.8c0-1.9-.3-3.6-1-5.3-.6-1.8-1.5-3.3-2.7-4.6zm-19.4 8.4c.1-1.4.4-2.7 1-3.9.5-1.2 1.2-2.2 2.1-3.1.9-.9 1.9-1.5 3.1-2 1.2-.5 2.4-.7 3.7-.7 1.3 0 2.5.2 3.7.7 1.2.5 2.2 1.2 3.1 2 .9.9 1.6 1.9 2.2 3.1.6 1.2.9 2.5 1 4h-19.9zM308.6 144.1l-9.2-23.7h-3.6l10.9 26.9h3.7l11-26.9H318zM331.4 109.6h3.5v5.2h-3.5zM331.4 120.4h3.5v27h-3.5zM369.1 124c-1.2-1.3-2.6-2.3-4.2-3-1.6-.7-3.4-1.1-5.4-1.1-1.9 0-3.7.4-5.4 1.1-1.7.7-3.1 1.7-4.3 3-1.2 1.3-2.1 2.7-2.8 4.4-.7 1.7-1 3.5-1 5.4 0 1.9.3 3.7 1 5.4.7 1.7 1.6 3.2 2.8 4.5 1.2 1.3 2.6 2.3 4.3 3.1 1.6.7 3.4 1.1 5.4 1.1 1.3 0 2.6-.2 3.8-.5 1.2-.3 2.3-.8 3.3-1.4 1-.6 1.9-1.3 2.6-2.1.8-.8 1.3-1.7 1.8-2.7l-3.1-.8c-.3.7-.8 1.4-1.3 2-.6.6-1.2 1.1-2 1.5-.7.4-1.5.7-2.4 1-.9.2-1.7.4-2.6.4-1.3 0-2.5-.2-3.7-.7-1.2-.5-2.2-1.2-3.1-2.1-.9-.9-1.6-2-2.2-3.2-.6-1.2-.9-2.6-1-4h23.1c0-.1.1-.3.1-.6v-.8c0-1.9-.3-3.6-1-5.3-.6-1.8-1.6-3.3-2.7-4.6zm-19.5 8.4c.1-1.4.4-2.7 1-3.9.5-1.2 1.2-2.2 2.1-3.1.9-.9 1.9-1.5 3.1-2 1.2-.5 2.4-.7 3.7-.7 1.3 0 2.5.2 3.7.7 1.2.5 2.2 1.2 3.1 2 .9.9 1.6 1.9 2.2 3.1.6 1.2.9 2.5 1 4h-19.9zM406.8 143.7l-5.1-12.3 4.6-11h-3l-3.5 8.8-3.5-8.8h-3l4.6 11-5.1 12.3-9.8-23.3h-3.4l11.6 26.9h2.9l5.7-13.7 5.8 13.7h2.9l11.6-26.9h-3.5z"/><g><path class="st1" d="m36.5.7 10.8 17.7h.1c-1.1.7-26.6 17.2-26.6 56s25.5 55.3 26.6 56h-.1l-10.8 17.7C35 147.2 0 125.3 0 74.4 0 23.5 35 1.6 36.5.7z"/></g><path class="st1" d="M53.1 48.2c0-9.1 7.4-16.5 16.5-16.5s16.5 7.4 16.5 16.5-7.4 16.5-16.5 16.5c-9.1-.1-16.5-7.4-16.5-16.5zM53.1 94.2c0-9.1 7.4-16.5 16.5-16.5s16.5 7.4 16.5 16.5-7.4 16.5-16.5 16.5-16.5-7.4-16.5-16.5z"/></svg>