<?xml version="1.0" encoding="utf-8"?>
<!-- Generator: Adobe Illustrator 26.0.2, SVG Export Plug-In . SVG Version: 6.00 Build 0)  -->
<svg version="1.1" id="Calque_1" xmlns="http://www.w3.org/2000/svg" xmlns:xlink="http://www.w3.org/1999/xlink" x="0px" y="0px"
	 viewBox="0 0 547 148.8" style="enable-background:new 0 0 547 148.8;" xml:space="preserve">
<style type="text/css">
	.st0{fill:#EDEDED;}
</style>
<path class="st0" d="M130.8,79.5c-0.9,2.4-2.6,4.3-5.3,5.6c-2.6,1.3-5.5,2-8.4,2c-3.2,0-6.1-0.9-8.8-2.7c-2.7-1.8-4.2-4.7-4.5-8.7
	h53.3c0.2-1.2,0.4-2.5,0.5-4s0.2-3,0.2-4.4c0-5.2-0.9-10.2-2.7-14.9c-1.8-4.8-4.4-9-7.9-12.6s-7.9-6.5-13.1-8.7
	c-5.1-2-11.1-3.1-17.8-3.1c-6.8,0-12.8,1.1-18,3.2c-4.3,1.8-7.9,4.1-11.1,7c1.7,2.9,2.6,6.3,2.6,10c0,9.4-6.4,17.3-15.1,19.6v0.7
	c0,2.2,0.2,4.3,0.5,6.4c8.4,2.5,14.6,10.2,14.6,19.4c0,1.5-0.2,3-0.5,4.4c2.7,2,5.7,3.7,9.2,5.1c5.2,2.1,11.1,3.1,17.8,3.1
	c9.3,0,17.2-1.9,23.6-5.8c6.4-3.8,11.1-8.8,14.2-14.9L130.8,79.5L130.8,79.5z M107.3,50.7c2.2-2.1,5.1-3.2,8.5-3.2s6.3,1.1,8.5,3.2
	s3.6,5,4,8.7h-25.1C103.8,55.7,105.1,52.8,107.3,50.7z M263.4,105.4V62.8c1.2-3.2,3-5.8,5.4-7.8c2.5-2,4.8-3,7-3
	c2.1,0,3.9,0.8,5.4,2.5s2.2,4.4,2.2,8.2v42.7h27.4v-50c0-2.6-0.2-5.5-0.7-8.7s-1.5-6.2-3-9s-3.8-5.1-6.7-7
	c-2.9-1.9-6.9-2.8-11.9-2.8c-6,0-11.3,1.2-16,3.5s-8.4,5.5-11,9.7c-0.6-1.7-1.4-3.4-2.4-4.9s-2.4-2.9-4-4.2c-1.7-1.2-3.7-2.2-6-3
	c-2.3-0.7-5-1.1-8.1-1.1c-6.4,0-12,1.1-16.7,3.2c-4.7,2.2-8.4,5.3-11.1,9.5V29.4h-24.7v75.9h27.4V62.8c1.2-3.2,3-5.8,5.4-7.8
	c2.5-2,4.8-3,7-3c2.1,0,3.9,0.8,5.4,2.5s2.2,4.4,2.2,8.2v42.7H263.4L263.4,105.4z M414.1,39.9c-3.5-3.6-7.9-6.5-13.1-8.7
	S389.8,28,383.1,28c-6.8,0-12.8,1.1-18,3.2c-5.1,2.2-9.5,5.1-13,8.7c-3.5,3.6-6.2,7.8-7.9,12.6c-1.8,4.8-2.7,9.7-2.7,14.9
	s0.9,10.2,2.7,14.9c1.8,4.8,4.4,9,7.9,12.6s7.8,6.5,13,8.7c5.1,2.2,11.1,3.2,18,3.2c6.7,0,12.7-1.1,17.9-3.2
	c5.2-2.2,9.5-5.1,13.1-8.7c3.5-3.6,6.2-7.8,7.9-12.6c1.8-4.8,2.7-9.7,2.7-14.9s-0.9-10.2-2.7-14.9C420.3,47.7,417.7,43.5,414.1,39.9
	z M392.9,79.4c-2.5,2.9-5.7,4.3-9.7,4.3c-3.9,0-7.2-1.4-9.7-4.3s-3.8-6.9-3.8-12s1.2-9.1,3.8-12c2.5-2.9,5.7-4.3,9.7-4.3
	c3.9,0,7.2,1.4,9.7,4.3c2.5,2.9,3.8,6.9,3.8,12C396.6,72.5,395.4,76.5,392.9,79.4z M456.7,0h27.4v23.1h-27.4V0z M456.7,29.4v89.5
	c0,4.1-1.9,6.2-5.8,6.2c-2.8,0-5.1-1-6.8-2.9L432.8,141c3,2.5,6.3,4.4,10,5.8c3.7,1.3,7.5,2,11.5,2c4.3,0,8.3-0.8,12-2.3
	s6.8-3.7,9.5-6.6c2.6-2.8,4.7-6.2,6.1-10.1c1.4-3.9,2.2-8.2,2.2-12.9V29.4H456.7z M519.6,29.4H547v75.9h-27.4V29.4z M519.6,0H547
	v23.1h-27.4V0z M99.6,141.9c-0.5,0.6-1.1,1-1.9,1.5c-0.7,0.4-1.5,0.8-2.4,1c-0.8,0.2-1.7,0.4-2.6,0.4c-1.3,0-2.6-0.3-3.8-0.9
	c-1.2-0.6-2.2-1.3-3.1-2.3s-1.6-2.1-2.1-3.5c-0.5-1.3-0.8-2.8-0.8-4.3c0-1.6,0.2-3,0.7-4.3s1.2-2.4,2.1-3.4c0.9-0.9,1.9-1.7,3.1-2.3
	c1.2-0.6,2.5-0.8,3.9-0.8c1.7,0,3.2,0.4,4.5,1.2c1.4,0.8,2.4,1.9,3.2,3.2l3.4-1.1c-1-2-2.4-3.5-4.3-4.7s-4.1-1.7-6.7-1.7
	c-2,0-3.8,0.4-5.5,1.1s-3.1,1.7-4.3,3c-1.2,1.3-2.1,2.7-2.8,4.4c-0.7,1.7-1,3.5-1,5.4s0.3,3.7,1,5.4s1.6,3.2,2.8,4.5
	c1.2,1.3,2.6,2.3,4.3,3.1c1.7,0.7,3.5,1.1,5.4,1.1c1.3,0,2.5-0.2,3.7-0.5s2.3-0.8,3.3-1.4c1-0.6,1.8-1.3,2.6-2.1
	c0.7-0.8,1.3-1.7,1.7-2.7l-3.5-1C100.5,140.8,100.1,141.3,99.6,141.9L99.6,141.9z M135.7,124.1c-1.2-1.3-2.6-2.3-4.2-3.1
	c-1.6-0.8-3.4-1.1-5.4-1.1c-1.9,0-3.7,0.4-5.3,1.1c-1.6,0.8-3,1.8-4.2,3.1c-1.2,1.3-2.1,2.8-2.8,4.4c-0.7,1.7-1,3.5-1,5.4
	s0.3,3.6,1,5.3s1.6,3.2,2.8,4.4c1.2,1.3,2.6,2.3,4.2,3s3.4,1.1,5.4,1.1s3.8-0.4,5.4-1.1c1.6-0.7,3.1-1.8,4.2-3
	c1.2-1.3,2.1-2.8,2.8-4.4c0.7-1.7,1-3.5,1-5.3c0-1.9-0.3-3.7-1-5.4C137.8,126.9,136.9,125.4,135.7,124.1z M135.1,138.1
	c-0.5,1.3-1.2,2.5-2.1,3.4c-0.9,1-1.9,1.8-3.1,2.3c-1.2,0.6-2.5,0.9-3.8,0.9s-2.6-0.3-3.8-0.8c-1.2-0.6-2.2-1.3-3.1-2.3
	s-1.6-2.1-2.1-3.4c-0.5-1.3-0.8-2.7-0.8-4.2s0.3-2.9,0.8-4.3c0.5-1.3,1.2-2.5,2.1-3.5s1.9-1.8,3.1-2.4s2.4-0.9,3.8-0.9
	c1.3,0,2.6,0.3,3.8,0.9s2.2,1.3,3.1,2.3c0.9,1,1.6,2.1,2.1,3.5c0.5,1.3,0.8,2.7,0.8,4.2C135.9,135.4,135.7,136.8,135.1,138.1z
	 M174.8,142.8v-33.2h-3.5V126c-1-1.7-2.4-3.1-4.1-4.3c-1.8-1.2-3.8-1.8-6.1-1.8c-1.8,0-3.4,0.4-4.9,1.1s-2.8,1.8-3.9,3
	c-1.1,1.3-1.9,2.8-2.6,4.5c-0.6,1.7-0.9,3.5-0.9,5.4c0,1.8,0.3,3.6,1,5.3c0.6,1.7,1.5,3.1,2.7,4.4c1.1,1.3,2.5,2.3,4.1,3.1
	s3.3,1.2,5.2,1.2c2,0,3.9-0.5,5.7-1.6c1.8-1,3.3-2.4,4.3-4.2v2.6c0,0.8,0.3,1.4,0.9,1.9c0.6,0.5,1.3,0.8,2.2,0.8
	c0.3,0,0.7-0.1,1.2-0.2v-3.1C175.2,144.2,174.8,143.7,174.8,142.8L174.8,142.8z M171.3,138.1c-0.1,0.9-0.5,1.8-1.1,2.6
	s-1.3,1.5-2.2,2.1s-1.8,1.1-2.8,1.4c-1,0.3-1.9,0.5-2.8,0.5c-1.4,0-2.7-0.3-4-0.9c-1.2-0.6-2.3-1.4-3.2-2.4s-1.6-2.1-2.1-3.4
	c-0.5-1.3-0.8-2.7-0.8-4.1c0-1.4,0.2-2.7,0.7-4c0.4-1.3,1.1-2.5,1.9-3.5c0.8-1,1.9-1.8,3-2.5c1.2-0.6,2.5-0.9,3.9-0.9
	c0.9,0,1.9,0.2,2.8,0.5c1,0.3,1.9,0.8,2.7,1.4s1.6,1.3,2.3,2.1c0.7,0.8,1.2,1.7,1.5,2.6v8.5L171.3,138.1z M209.1,124
	c-1.2-1.3-2.6-2.3-4.2-3c-1.6-0.7-3.4-1.1-5.4-1.1c-1.9,0-3.7,0.4-5.4,1.1s-3.1,1.7-4.3,3s-2.1,2.7-2.8,4.4s-1,3.5-1,5.4
	s0.3,3.7,1,5.4s1.6,3.2,2.8,4.5s2.6,2.3,4.3,3.1c1.6,0.7,3.4,1.1,5.4,1.1c1.3,0,2.6-0.2,3.8-0.5s2.3-0.8,3.3-1.4
	c1-0.6,1.9-1.3,2.6-2.1c0.8-0.8,1.3-1.7,1.8-2.7l-3.1-0.8c-0.3,0.7-0.8,1.4-1.3,2c-0.6,0.6-1.2,1.1-2,1.5c-0.7,0.4-1.5,0.7-2.4,1
	c-0.9,0.2-1.7,0.4-2.6,0.4c-1.3,0-2.5-0.2-3.7-0.7s-2.2-1.2-3.1-2.1c-0.9-0.9-1.6-2-2.2-3.2c-0.6-1.2-0.9-2.6-1-4h23.1
	c0-0.1,0.1-0.3,0.1-0.6v-0.8c0-1.9-0.3-3.6-1-5.3C211.2,126.8,210.3,125.3,209.1,124L209.1,124z M189.7,132.4c0.1-1.4,0.4-2.7,1-3.9
	c0.5-1.2,1.2-2.2,2.1-3.1c0.9-0.9,1.9-1.5,3.1-2c1.2-0.5,2.4-0.7,3.7-0.7s2.5,0.2,3.7,0.7s2.2,1.2,3.1,2c0.9,0.9,1.6,1.9,2.2,3.1
	c0.6,1.2,0.9,2.5,1,4h-19.9L189.7,132.4z M249.2,122c-1.7,1.2-3,2.8-4,4.9v-6.5h-3.3v27h3.5v-16.8c0.7-2.2,2-3.9,3.7-5.1
	c1.8-1.2,3.8-1.9,6.2-2v-3.2c-0.2,0-0.4-0.1-0.7-0.1C252.7,120.2,250.9,120.8,249.2,122z M285,124c-1.2-1.3-2.6-2.3-4.2-3
	s-3.4-1.1-5.4-1.1c-1.9,0-3.7,0.4-5.4,1.1c-1.7,0.7-3.1,1.7-4.3,3c-1.2,1.3-2.1,2.7-2.8,4.4c-0.7,1.7-1,3.5-1,5.4s0.3,3.7,1,5.4
	s1.6,3.2,2.8,4.5c1.2,1.3,2.6,2.3,4.3,3.1c1.6,0.7,3.4,1.1,5.4,1.1c1.3,0,2.6-0.2,3.8-0.5c1.2-0.3,2.3-0.8,3.3-1.4
	c1-0.6,1.9-1.3,2.6-2.1c0.8-0.8,1.3-1.7,1.8-2.7l-3.1-0.8c-0.3,0.7-0.8,1.4-1.3,2c-0.6,0.6-1.2,1.1-2,1.5c-0.7,0.4-1.5,0.7-2.4,1
	c-0.9,0.2-1.7,0.4-2.6,0.4c-1.3,0-2.5-0.2-3.7-0.7s-2.2-1.2-3.1-2.1c-0.9-0.9-1.6-2-2.2-3.2s-0.9-2.6-1-4h23.1
	c0-0.1,0.1-0.3,0.1-0.6v-0.8c0-1.9-0.3-3.6-1-5.3C287.1,126.8,286.2,125.3,285,124L285,124z M265.6,132.4c0.1-1.4,0.4-2.7,1-3.9
	c0.5-1.2,1.2-2.2,2.1-3.1s1.9-1.5,3.1-2s2.4-0.7,3.7-0.7c1.3,0,2.5,0.2,3.7,0.7s2.2,1.2,3.1,2c0.9,0.9,1.6,1.9,2.2,3.1s0.9,2.5,1,4
	h-19.9L265.6,132.4z M308.6,144.1l-9.2-23.7h-3.6l10.9,26.9h3.7l11-26.9H318L308.6,144.1z M331.4,109.6h3.5v5.2h-3.5V109.6z
	 M331.4,120.4h3.5v27h-3.5V120.4z M369.1,124c-1.2-1.3-2.6-2.3-4.2-3s-3.4-1.1-5.4-1.1c-1.9,0-3.7,0.4-5.4,1.1
	c-1.7,0.7-3.1,1.7-4.3,3c-1.2,1.3-2.1,2.7-2.8,4.4c-0.7,1.7-1,3.5-1,5.4s0.3,3.7,1,5.4s1.6,3.2,2.8,4.5c1.2,1.3,2.6,2.3,4.3,3.1
	c1.6,0.7,3.4,1.1,5.4,1.1c1.3,0,2.6-0.2,3.8-0.5c1.2-0.3,2.3-0.8,3.3-1.4c1-0.6,1.9-1.3,2.6-2.1c0.8-0.8,1.3-1.7,1.8-2.7l-3.1-0.8
	c-0.3,0.7-0.8,1.4-1.3,2c-0.6,0.6-1.2,1.1-2,1.5c-0.7,0.4-1.5,0.7-2.4,1c-0.9,0.2-1.7,0.4-2.6,0.4c-1.3,0-2.5-0.2-3.7-0.7
	s-2.2-1.2-3.1-2.1c-0.9-0.9-1.6-2-2.2-3.2s-0.9-2.6-1-4h23.1c0-0.1,0.1-0.3,0.1-0.6v-0.8c0-1.9-0.3-3.6-1-5.3
	C371.2,126.8,370.2,125.3,369.1,124L369.1,124z M349.6,132.4c0.1-1.4,0.4-2.7,1-3.9c0.5-1.2,1.2-2.2,2.1-3.1s1.9-1.5,3.1-2
	s2.4-0.7,3.7-0.7c1.3,0,2.5,0.2,3.7,0.7s2.2,1.2,3.1,2c0.9,0.9,1.6,1.9,2.2,3.1s0.9,2.5,1,4h-19.9L349.6,132.4z M406.8,143.7
	l-5.1-12.3l4.6-11h-3l-3.5,8.8l-3.5-8.8h-3l4.6,11l-5.1,12.3l-9.8-23.3h-3.4l11.6,26.9h2.9l5.7-13.7l5.8,13.7h2.9l11.6-26.9h-3.5
	L406.8,143.7z"/>
<g>
	<path class="st0" d="M36.5,0.7l10.8,17.7h0.1c-1.1,0.7-26.6,17.2-26.6,56s25.5,55.3,26.6,56h-0.1l-10.8,17.7
		C35,147.2,0,125.3,0,74.4S35,1.6,36.5,0.7z"/>
</g>
<path class="st0" d="M53.1,48.2c0-9.1,7.4-16.5,16.5-16.5s16.5,7.4,16.5,16.5s-7.4,16.5-16.5,16.5C60.5,64.6,53.1,57.3,53.1,48.2z
	 M53.1,94.2c0-9.1,7.4-16.5,16.5-16.5s16.5,7.4,16.5,16.5s-7.4,16.5-16.5,16.5S53.1,103.3,53.1,94.2z"/>
</svg>
